<svg width="20" height="20" viewBox="0 0 22 22" fill="none" xmlns="http://www.w3.org/2000/svg">
<path d="M8.03057 10.9697C7.73768 10.6768 7.26281 10.6768 6.96991 10.9697C6.67702 11.2626 6.67702 11.7374 6.96991 12.0303L8.03057 10.9697ZM9.50024 13.5L8.96991 14.0303C9.11057 14.171 9.30133 14.25 9.50024 14.25C9.69916 14.25 9.88992 14.171 10.0306 14.0303L9.50024 13.5ZM15.0306 9.03032C15.3235 8.73743 15.3235 8.26256 15.0306 7.96966C14.7377 7.67677 14.2628 7.67677 13.9699 7.96966L15.0306 9.03032ZM5.62446 1.68862C5.26591 1.89602 5.14339 2.35482 5.3508 2.71336C5.5582 3.07191 6.017 3.19443 6.37554 2.98702L5.62446 1.68862ZM2.98702 6.37554C3.19443 6.017 3.07191 5.5582 2.71336 5.3508C2.35482 5.14339 1.89602 5.26591 1.68862 5.62446L2.98702 6.37554ZM6.96991 12.0303L8.96991 14.0303L10.0306 12.9697L8.03057 10.9697L6.96991 12.0303ZM10.0306 14.0303L15.0306 9.03032L13.9699 7.96966L8.96991 12.9697L10.0306 14.0303ZM6.37554 2.98702C7.73533 2.20043 9.31396 1.75 11 1.75V0.25C9.04324 0.25 7.20641 0.773509 5.62446 1.68862L6.37554 2.98702ZM11 1.75C16.1086 1.75 20.25 5.89137 20.25 11H21.75C21.75 5.06293 16.937 0.25 11 0.25V1.75ZM20.25 11C20.25 16.1086 16.1086 20.25 11 20.25V21.75C16.937 21.75 21.75 16.937 21.75 11H20.25ZM11 20.25C5.89137 20.25 1.75 16.1086 1.75 11H0.25C0.25 16.937 5.06293 21.75 11 21.75V20.25ZM1.75 11C1.75 9.31396 2.20043 7.73533 2.98702 6.37554L1.68862 5.62446C0.773509 7.20641 0.25 9.04324 0.25 11H1.75Z" fill="#30E512"/>
</svg>
