<svg width="17" height="6" viewBox="0 0 17 6" fill="none" xmlns="http://www.w3.org/2000/svg">
<path d="M1.96154 5.16667C1.44131 5.16667 0.942381 4.94425 0.574521 4.54834C0.206662 4.15243 0 3.61546 0 3.05555C0 2.49565 0.206662 1.95868 0.574521 1.56277C0.942381 1.16686 1.44131 0.944443 1.96154 0.944443C2.48177 0.944443 2.9807 1.16686 3.34856 1.56277C3.71642 1.95868 3.92308 2.49565 3.92308 3.05555C3.92308 3.61546 3.71642 4.15243 3.34856 4.54834C2.9807 4.94425 2.48177 5.16667 1.96154 5.16667ZM8.5 5.16667C7.97977 5.16667 7.48084 4.94425 7.11298 4.54834C6.74512 4.15243 6.53846 3.61546 6.53846 3.05555C6.53846 2.49565 6.74512 1.95868 7.11298 1.56277C7.48084 1.16686 7.97977 0.944443 8.5 0.944443C9.02023 0.944443 9.51916 1.16686 9.88702 1.56277C10.2549 1.95868 10.4615 2.49565 10.4615 3.05555C10.4615 3.61546 10.2549 4.15243 9.88702 4.54834C9.51916 4.94425 9.02023 5.16667 8.5 5.16667ZM15.0385 5.16667C14.5182 5.16667 14.0193 4.94425 13.6514 4.54834C13.2836 4.15243 13.0769 3.61546 13.0769 3.05555C13.0769 2.49565 13.2836 1.95868 13.6514 1.56277C14.0193 1.16686 14.5182 0.944443 15.0385 0.944443C15.5587 0.944443 16.0576 1.16686 16.4255 1.56277C16.7933 1.95868 17 2.49565 17 3.05555C17 3.61546 16.7933 4.15243 16.4255 4.54834C16.0576 4.94425 15.5587 5.16667 15.0385 5.16667Z" fill="#BBBBBB"/>
</svg>
